<?xml version="1.0" encoding="utf-8"?>
<!-- Generator: Adobe Illustrator 24.1.0, SVG Export Plug-In . SVG Version: 6.00 Build 0)  -->
<svg version="1.1" xmlns="http://www.w3.org/2000/svg" xmlns:xlink="http://www.w3.org/1999/xlink" x="0px" y="0px"
	 viewBox="0 0 362 80" style="enable-background:new 0 0 362 80;" xml:space="preserve">
<style type="text/css">
	.st0{display:none;fill:#30BDBF;}
	.st1{fill:#30BDBF;}
	.st2{display:none;fill:#FFFFFF;}
	.st3{fill:#FFFFFF;}
</style>
<g id="Layer_1">
	<circle class="st0" cx="55" cy="40" r="40"/>
	<g>
		<g>
			<g>
				<path class="st1" d="M111.6,29.2v-3.2c2.9,1,6,1.5,9.3,1.5c4.7,0,7.1-1.7,7.1-5.2c0-2.9-1.7-4.4-5.2-4.4h-3.5
					c-5.7,0-8.6-2.5-8.6-7.5c0-5.2,3.7-7.8,11-7.8c3.2,0,6.2,0.4,8.9,1.2V7c-2.7-1-5.7-1.5-8.9-1.5c-5,0-7.5,1.7-7.5,5
					c0,2.9,1.7,4.4,5.1,4.4h3.5c5.8,0,8.8,2.5,8.8,7.5c0,5.4-3.5,8-10.6,8C117.6,30.3,114.4,29.9,111.6,29.2z"/>
				<path class="st1" d="M153.6,10v20.1h-2.4l-0.6-2.6c-2.4,1.7-4.9,2.6-7.4,2.6c-4.6,0-6.9-2.5-6.9-7.5V10h3.5v12.7
					c0,3,1.5,4.5,4.4,4.5c2,0,4-0.9,5.8-2.5V10H153.6z"/>
				<path class="st1" d="M159.3,10.8c2.7-0.6,5.4-0.8,8.3-0.8c6.4,0,9.7,3.2,9.7,9.6c0,7-3.2,10.5-9.7,10.5c-1.6,0-3.2-0.3-4.7-1
					v8.2h-3.5L159.3,10.8L159.3,10.8z M162.9,26c1.4,0.7,2.9,1,4.6,1c4.2,0,6.3-2.5,6.3-7.5c0-4.4-2.1-6.6-6.2-6.6
					c-1.8,0-3.4,0.1-4.7,0.5L162.9,26L162.9,26z"/>
				<path class="st1" d="M182.1,10.8c2.7-0.6,5.4-0.8,8.3-0.8c6.4,0,9.7,3.2,9.7,9.6c0,7-3.2,10.5-9.7,10.5c-1.6,0-3.2-0.3-4.7-1
					v8.2h-3.5L182.1,10.8L182.1,10.8z M185.6,26c1.4,0.7,2.9,1,4.6,1c4.2,0,6.3-2.5,6.3-7.5c0-4.4-2.1-6.6-6.2-6.6
					c-1.8,0-3.4,0.1-4.7,0.5L185.6,26L185.6,26z"/>
				<path class="st1" d="M203.8,20.1c0-6.7,3.2-10.1,9.6-10.1c6.4,0,9.6,3.3,9.6,10.1c0,6.7-3.2,10-9.6,10
					C207.1,30.1,203.9,26.8,203.8,20.1z M213.4,27.2c4,0,6-2.4,6-7.3c0-4.7-2-7.1-6-7.1s-6,2.4-6,7.1
					C207.4,24.8,209.4,27.2,213.4,27.2z"/>
				<path class="st1" d="M227.8,30.1V10h2.4l0.6,2.6c1.8-1.7,3.9-2.6,6.4-2.6V13c-2.4,0-4.4,0.9-5.8,2.6v14.6L227.8,30.1L227.8,30.1
					z"/>
				<path class="st1" d="M240.7,6.8h2.2l0.8,3.2h5.4v2.9h-4.9v11.5c0,1.9,0.8,2.8,2.4,2.8h2.4v2.9h-3.4c-3.4,0-5.1-1.8-5.1-5.4
					L240.7,6.8L240.7,6.8z"/>
				<path class="st1" d="M111,57.3c0-9.3,4.6-13.9,13.7-13.9c9,0,13.5,4.6,13.5,13.9c0,9.2-4.5,13.8-13.5,13.8
					C115.6,71.1,111,66.5,111,57.3z M124.8,68.3c6.5,0,9.8-3.7,9.8-11.1c0-7.3-3.3-10.9-9.8-10.9c-6.7,0-10,3.6-10,10.9
					C114.7,64.6,118.1,68.3,124.8,68.3z"/>
				<path class="st1" d="M143.4,51.7c2.7-0.5,5.4-0.8,8.3-0.8c6.4,0,9.7,3.2,9.7,9.5c0,7-3.2,10.5-9.7,10.5c-1.6,0-3.2-0.3-4.7-1
					v8.2h-3.5L143.4,51.7L143.4,51.7z M147,66.8c1.4,0.7,2.9,1,4.6,1c4.2,0,6.3-2.5,6.3-7.5c0-4.4-2.1-6.6-6.2-6.6
					c-1.8,0-3.4,0.2-4.7,0.5L147,66.8L147,66.8z"/>
				<path class="st1" d="M174.5,50.8c5.7,0,8.6,2.8,8.6,8.5c0,0.8-0.1,1.7-0.2,2.6h-14.1c0,4.1,2.4,6.2,7.2,6.2
					c2.3,0,4.3-0.2,6.1-0.8v2.9c-1.8,0.5-3.9,0.8-6.5,0.8c-6.9,0-10.4-3.4-10.4-10.3C165.2,54.1,168.3,50.8,174.5,50.8z M168.8,59
					h10.9c-0.1-3.5-1.8-5.3-5.2-5.3C170.9,53.7,169,55.4,168.8,59z"/>
				<path class="st1" d="M187.8,70.9V50.8h2.4l0.6,2.6c2.1-1.7,4.3-2.6,6.8-2.6c5,0,7.5,2.5,7.5,7.5V71h-3.5V58.3
					c0-3-1.5-4.5-4.5-4.5c-2,0-4,0.8-5.8,2.5v14.6L187.8,70.9L187.8,70.9z"/>
				<path class="st1" d="M220.4,70v-3.2c2.9,1,6,1.5,9.3,1.5c4.7,0,7.1-1.7,7.1-5.2c0-2.9-1.7-4.4-5.2-4.4h-3.5
					c-5.7,0-8.6-2.5-8.6-7.5c0-5.2,3.7-7.8,11-7.8c3.2,0,6.2,0.4,8.9,1.2v3.3c-2.7-1-5.7-1.5-8.9-1.5c-5,0-7.5,1.7-7.5,5
					c0,2.9,1.7,4.4,5.1,4.4h3.5c5.8,0,8.8,2.5,8.8,7.5c0,5.4-3.5,8-10.6,8C226.4,71.1,223.3,70.8,220.4,70z"/>
				<path class="st1" d="M244.2,60.9c0-6.7,3.2-10,9.6-10s9.6,3.3,9.6,10c0,6.7-3.2,10-9.6,10C247.4,70.9,244.2,67.6,244.2,60.9z
					 M253.8,68.1c4,0,6-2.4,6-7.3c0-4.7-2-7.1-6-7.1c-4,0-6,2.4-6,7.1C247.7,65.7,249.7,68.1,253.8,68.1z"/>
				<path class="st1" d="M285.4,50.8v20.1H283l-0.6-2.6c-2.4,1.7-4.9,2.6-7.4,2.6c-4.6,0-6.9-2.5-6.9-7.5V50.8h3.5v12.7
					c0,3,1.5,4.5,4.4,4.5c2,0,4-0.8,5.8-2.6V50.8H285.4z"/>
				<path class="st1" d="M291.2,70.9V50.8h2.4l0.6,2.6c1.8-1.7,3.9-2.6,6.4-2.6v3c-2.4,0-4.4,0.8-5.8,2.5V71L291.2,70.9L291.2,70.9z
					"/>
				<path class="st1" d="M319.2,70.4c-1.7,0.4-3.5,0.6-5.4,0.6c-7.1,0-10.7-3.5-10.7-10.4c0-6.5,3.6-9.7,10.7-9.7
					c1.9,0,3.7,0.2,5.4,0.6v2.9c-1.7-0.4-3.5-0.6-5.5-0.6c-4.7,0-7,2.3-7,6.8c0,5,2.3,7.6,7,7.6c2,0,3.9-0.2,5.5-0.6V70.4z"/>
				<path class="st1" d="M332,50.8c5.7,0,8.6,2.8,8.6,8.5c0,0.8-0.1,1.7-0.2,2.6h-14.1c0,4.1,2.4,6.2,7.2,6.2c2.3,0,4.3-0.2,6.1-0.8
					v2.9c-1.8,0.5-3.9,0.8-6.5,0.8c-6.9,0-10.4-3.4-10.4-10.3C322.8,54.1,325.9,50.8,332,50.8z M326.3,59h10.9
					c-0.1-3.5-1.8-5.3-5.2-5.3C328.5,53.7,326.5,55.4,326.3,59z"/>
			</g>
		</g>
		<path class="st2" d="M78.3,22.5L58.2,10.9c-2.1-1.2-4.8-1.2-6.9,0L31.3,22.5c-2.1,1.2-3.4,3.5-3.4,6v0.9L41,35.3v10.5
			c0,1.4,0.7,2.6,1.9,3.3l9.9,5.7l0,15l0.7,0.1c0.4,0.1,0.9,0.1,1.3,0.1c1.2,0,2.4-0.3,3.4-0.9l20.1-11.6c2.1-1.2,3.4-3.5,3.4-6
			V28.5C81.7,26,80.4,23.7,78.3,22.5z M54.5,55.4c0.1,0,0.2,0,0.3,0c0.7,0,1.3-0.2,1.9-0.5l10-5.8c1.2-0.7,1.9-2,1.9-3.3V34.3
			c0-1.4-0.7-2.6-1.9-3.3l-10-5.8c-1.2-0.7-2.7-0.7-3.8,0l-10,5.8c-0.9,0.5-1.6,1.5-1.8,2.5l-11.6-5.2c0.1-1.8,1-3.4,2.6-4.3
			l20.1-11.6c1.6-0.9,3.6-0.9,5.2,0L77.4,24c1.6,0.9,2.6,2.6,2.6,4.5v23.2c0,1.8-1,3.6-2.6,4.5L57.4,67.7c-0.9,0.5-1.8,0.7-2.8,0.7
			V55.4z M42.7,36.1l10.2,4.6l0,12.3l-9.1-5.2c-0.7-0.4-1.1-1.1-1.1-1.9V36.1z M43.7,32.4l10-5.8c0.3-0.2,0.7-0.3,1.1-0.3
			s0.8,0.1,1.1,0.3l10,5.8c0.7,0.4,1.1,1.1,1.1,1.9v11.5c0,0.8-0.4,1.5-1.1,1.9l-10,5.8c-0.4,0.2-0.9,0.3-1.3,0.2V39.5l-11.8-5.3
			C42.7,33.5,43.1,32.8,43.7,32.4z"/>
	</g>
</g>
<g id="Layer_2">
	<circle class="st1" cx="54.5" cy="40" r="40"/>
	<path class="st3" d="M77.4,22.9L57.9,11.7c-2.1-1.2-4.6-1.2-6.7,0L31.7,22.9c-0.6,0.3-1.1,0.8-1.6,1.3c-1.4,1.3-2.2,3-2.2,4.9v1
		l12.6,5.6V46c0,1.3,0.7,2.6,1.9,3.3l9.7,5.6l0,14.6l0.7,0.1c0.4,0.1,0.9,0.1,1.3,0.1c0.1,0,0.2,0,0.2,0c0.1,0,0.1,0,0.2,0
		c1.2,0,2.3-0.3,3.3-0.9l19.6-11.3c2.1-1.2,3.4-3.4,3.4-5.8v-0.4V29.1v-0.4C80.7,26.4,79.5,24.1,77.4,22.9z M78.6,51.7
		c0,1.3-0.5,2.4-1.3,3.4c-0.3,0.2-0.5,0.4-0.8,0.6L57.1,66.9c-0.8,0.5-1.8,0.7-2.8,0.7V55.3c0,0,0.1,0,0.1,0c0,0,0.1,0,0.1,0
		c0.7,0,1.3-0.2,1.9-0.5l9.6-5.6c1.1-0.7,1.9-1.9,1.9-3.2v-0.4V34.8v-0.4c0-1.3-0.7-2.6-1.9-3.2l-9.7-5.6c-1.2-0.7-2.6-0.7-3.7,0
		l-9.7,5.6c-0.4,0.2-0.7,0.5-0.9,0.8c-0.5,0.4-0.9,1-1.1,1.6l-11-4.9c0.2-1.6,1.1-3,2.5-3.8L52,13.5c0.7-0.4,1.5-0.6,2.3-0.7
		c0.8,0,1.6,0.3,2.3,0.7l19.5,11.3c1.6,0.9,2.5,2.6,2.5,4.4V51.7z M42.8,34.3c0.1-0.6,0.5-1.1,1-1.4l9.8-5.6
		c0.3-0.2,0.6-0.2,0.9-0.3c0.3,0,0.6,0.1,0.9,0.3L65,33c0.6,0.4,1.1,1.1,1.1,1.8v11.3c0,0.5-0.2,0.9-0.4,1.3
		c-0.1,0.1-0.1,0.1-0.2,0.2l-9.8,5.6c-0.4,0.2-0.9,0.3-1.3,0.2V39.9v-0.4L42.8,34.3z M52.2,41l0,11.4l-8.4-4.9c-0.6-0.4-1-1.1-1-1.8
		v-8.9L52.2,41z"/>
</g>
</svg>
